<svg fill="none" height="32" viewBox="0 0 32 32" width="32" xmlns="http://www.w3.org/2000/svg"><g stroke="#000" stroke-width="2"><path d="m15 13v6" stroke-linecap="round"/><path d="m7 13v6" stroke-linecap="round"/><rect height="22" rx="8" stroke-linejoin="round" width="26" x="3" y="5"/><path d="m22 13v5.5" stroke-linecap="round" stroke-linejoin="round"/></g><path d="m25.7229 17.6627c.4608-.3045.5874-.9249.2829-1.3856-.3045-.4608-.9248-.5874-1.3856-.2829zm-3.723 1.2619-.5727.8197c.3362.2349.7819.2407 1.1241.0145zm-2.4272-2.9159c-.4527-.3163-1.0762-.2057-1.3925.247s-.2057 1.0761.247 1.3925zm5.0475-.0145-3.1716 2.0961 1.1027 1.6685 3.1716-2.0961zm-2.0475 2.1106-3-2.0961-1.1455 1.6395 3 2.0961z" fill="#000"/><path d="m15.7071 13.7071c.3905-.3905.3905-1.0237 0-1.4142s-1.0237-.3905-1.4142 0zm-4.7071 3.2929-.7071.7071c.3905.3905 1.0237.3905 1.4142 0zm-3.29289-4.7071c-.39053-.3905-1.02369-.3905-1.41422 0-.39052.3905-.39052 1.0237 0 1.4142zm6.58579 0-4 4 1.4142 1.4142 4-4zm-2.5858 4-3.99999-4-1.41422 1.4142 4.00001 4z" fill="#000"/></svg>