<?xml version="1.0" encoding="UTF-8"?>
<svg id="_图层_1" data-name="图层_1" xmlns="http://www.w3.org/2000/svg" xmlns:xlink="http://www.w3.org/1999/xlink" version="1.1" viewBox="0 0 57.4 57.4">
  <!-- Generator: Adobe Illustrator 29.6.1, SVG Export Plug-In . SVG Version: 2.1.1 Build 9)  -->
  <defs>
    <style>
      .st0 {
        fill: #fff;
        stroke: #fff;
        stroke-width: 1.5px;
      }

      .st0, .st1 {
        display: none;
      }

      .st2 {
        fill: url(#_未命名的渐变_27);
      }

      .st3 {
        fill: url(#_未命名的渐变_22);
      }
    </style>
    <linearGradient id="_未命名的渐变_22" data-name="未命名的渐变 22" x1=".9" y1="28.7" x2="56.5" y2="28.7" gradientUnits="userSpaceOnUse">
      <stop offset="0" stop-color="#6100ff"/>
      <stop offset="1" stop-color="#fff"/>
    </linearGradient>
    <linearGradient id="_未命名的渐变_27" data-name="未命名的渐变 27" x1="17" y1="26.2" x2="41.5" y2="26.2" gradientUnits="userSpaceOnUse">
      <stop offset="0" stop-color="#fff"/>
      <stop offset=".9" stop-color="#6100ff"/>
    </linearGradient>
  </defs>
  <g id="_图层_2" class="st1">
    <rect class="st0" x="-.4" y="-.5" width="58.5" height="58.5"/>
    <circle class="st0" cx="28.8" cy="28.7" r="29.3"/>
    <circle class="st0" cx="29.1" cy="28.6" r="25.1"/>
  </g>
  <g id="Capa_1">
    <g>
      <path class="st0" d="M28.7,58.4C12.6,58.4-.5,45.3-.5,29.2S12.6,0,28.7,0s29.2,13.1,29.2,29.2-13.1,29.2-29.2,29.2ZM28.7,9c-11.1,0-20.2,9.1-20.2,20.2s9.1,20.2,20.2,20.2,20.2-9.1,20.2-20.2-9.1-20.2-20.2-20.2Z"/>
      <path class="st0" d="M28.7,57.4C13.1,57.4.5,44.7.5,29.2S13.1,1,28.7,1s28.2,12.6,28.2,28.2-12.6,28.2-28.2,28.2ZM28.7,8c-11.7,0-21.2,9.5-21.2,21.2s9.5,21.2,21.2,21.2,21.2-9.5,21.2-21.2S40.4,8,28.7,8Z"/>
      <path class="st0" d="M28.7,56.4c-15,0-27.2-12.2-27.2-27.2S13.7,2,28.7,2s27.2,12.2,27.2,27.2-12.2,27.2-27.2,27.2ZM28.7,7c-12.2,0-22.2,10-22.2,22.2s10,22.2,22.2,22.2,22.2-10,22.2-22.2S40.9,7,28.7,7Z"/>
      <path class="st0" d="M28.7,3C14.3,3,2.5,14.8,2.5,29.2s11.8,26.2,26.2,26.2,26.2-11.8,26.2-26.2S43.1,3,28.7,3ZM28.7,52.4c-12.8,0-23.2-10.4-23.2-23.2S15.9,6,28.7,6s23.2,10.4,23.2,23.2-10.4,23.2-23.2,23.2Z"/>
      <path class="st3" d="M28.7.9C13.4.9.9,13.4.9,28.7s12.5,27.8,27.8,27.8,27.8-12.5,27.8-27.8S44,.9,28.7.9ZM28.7,53.3c-13.5,0-24.6-11.1-24.6-24.6S15.1,4.1,28.7,4.1s24.6,11.1,24.6,24.6-11.1,24.6-24.6,24.6Z"/>
      <path class="st0" d="M36.3,38.9c-.9,0-1.8-.6-2.2-1.5l-1.3-3.1s-.2-.2-.3-.2h-7s-.3,0-.3.2l-1.2,3.1c-.3.8-1.3,1.5-2.2,1.5h-3.7c-.6,0-1.1-.3-1.4-.7s-.3-1,0-1.5l8-20.2c.4-.9,1.3-1.5,2.2-1.5h2.3c.9,0,1.8.6,2.2,1.4l10.1,20.2c.3.6.2,1.1,0,1.6-.3.4-.8.7-1.4.7,0,0-3.8,0-3.8,0ZM29.2,27.2l-1.3-3.3-1.3,3.3s2.6,0,2.6,0Z"/>
      <path class="st0" d="M30.5,16.8c-.2-.5-.8-.8-1.3-.8h-2.3c-.5,0-1.1.4-1.3.8l-8,20.3c-.2.5,0,.8.5.8h3.7c.5,0,1-.4,1.2-.8l1.2-3.1c.2-.5.7-.8,1.2-.8h7c.5,0,1.1.4,1.2.8l1.3,3.1c.2.5.7.8,1.2.8h3.8c.5,0,.7-.4.5-.8l-10.2-20.3h.3ZM29.8,28.2h-3.7c-.5,0-.8-.4-.6-.8l2.1-5.3c.2-.5.5-.5.7,0l2.1,5.3c.2.5,0,.8-.6.8Z"/>
      <path class="st2" d="M30.7,15.5c-.2-.5-.8-.9-1.3-.9h-2.5c-.5,0-1.1.4-1.3.9l-8.5,21.5c-.2.5,0,.9.6.9h3.9c.5,0,1.1-.4,1.3-.9l1.3-3.3c.2-.5.8-.9,1.3-.9h7.4c.5,0,1.1.4,1.3.9l1.3,3.3c.2.5.8.9,1.3.9h4c.5,0,.8-.4.6-.9l-10.8-21.5h.1ZM29.9,27.6h-3.9c-.5,0-.8-.4-.6-.9l2.2-5.7c.2-.5.5-.5.7,0l2.2,5.7c.2.5,0,.9-.6.9Z"/>
    </g>
  </g>
</svg>