<?xml version="1.0" encoding="UTF-8"?>
<svg id="_图层_1" data-name="图层 1" xmlns="http://www.w3.org/2000/svg" viewBox="0 0 850.09 850.09">
  <defs>
    <style>
      .cls-1 {
        fill: #231815;
      }

      .cls-2 {
        fill: #fff;
      }
    </style>
  </defs>
  <circle class="cls-1" cx="425.04" cy="425.04" r="425.04"/>
  <circle class="cls-2" cx="425.04" cy="425.04" r="362.87"/>
  <path d="M382.17,175.19c-27.64,5.8-53.1,27.59-68.14,52.42-12.65,22.2-21.26,51.66-30.12,76.61-13.36,38.85-27.38,77.89-40.78,116.78-26.49,75.74-53.37,152.67-79.39,228.77-1.42,4-2.38,6.73-1.5,7.2.55.36,2.02-.37,4.05-1.8,1.74-1.22,3.79-2.83,5.71-4.34,11.07-9.17,21.72-16.7,34-24.92,17.92-12.01,35.97-23.64,54.01-33.93,47.72-26.96,95.13-46.95,147.23-61.19,27.85-7.44,62.96-13.83,86.08-15.51,3.44-.19,7.3-.71,10.57.62,6.74,2.61,8.43,11.54,10.88,17.88,5.61,15.78,10.2,29.02,15.06,43.29,4.49,13.14,9,26.33,13.57,39.67,6.75,18.98,7.86,24.57,13.85,39.38,1.41,3.02,3.69,4.13,6.72,4.01,26.12-.07,62.98.48,89.87.36,8.42.03,18.18-.06,26.35-.16,9.24-.32,16.35.06,15.99-1.52-2.03-6.82-11.87-34.26-15.79-45.19-26.47-73.53-53.5-152.18-80.48-226.81-12.34-35.49-25.22-71.75-37.99-107.16-5.76-15.41-10.3-31.06-18.74-45.22-4.79-8.03-10.57-16.87-16.48-23.94-15.86-17.63-37.57-30.19-60.72-34.97-8.95-1.85-16.07-1.91-25.24-2.12-12.87-.2-28.26-.17-41.09.28-5.98.33-12.39.33-17.34,1.49l-.15.03ZM474.45,286.1c6.94,4.14,11.9,10.55,13.32,18.17,1.64,10.34.28,22.17-1.02,32.94-5.11,50.47-36.52,93.81-75.82,125.5-13.9,11.87-32.8,24.6-47.49,34.37-5.7,3.4-9.83,7.82-6.02-2.31,22.37-60.24,43.4-116.6,64.25-172.07,4.21-10.28,8.01-21.32,15.91-29.15,9.43-9.62,25.23-14.25,36.69-7.56l.17.09Z"/>
</svg>